<svg version="1.0" xmlns="http://www.w3.org/2000/svg" viewBox="0 0 3000.000000 832.000000" preserveAspectRatio="xMidYMid meet">
	<g transform="translate(0.000000,832.000000) scale(0.100000,-0.100000)" fill="#FFFFFF" stroke="none">
		<path d="M628 5295 l-605 -3025 698 0 698 0 10 53 c6 28 94 473 196 987 102 514 190 959 196 988 l10 52 543 0 c677 0 847 12 1155 82 780 176 1385 667 1675 1359 187 448 254 924 180 1286 -134 661 -704 1137 -1474 1233 -55 6 -538 10 -1381 10 l-1296 0 -605 -3025z m2951 1931 c167 -44 285 -134 351 -270 62 -126 74 -187 74 -361 -1 -294 -83 -546 -248 -766 -142 -188 -319 -312 -534 -372 -74 -20 -101 -21 -626 -25 l-549 -3 5 23 c3 13 85 423 184 911 l178 888 551 -4 c478 -3 558 -6 614 -21z"/>
		<path d="M15232 7448 c-51 -249 -102 -501 -114 -560 l-21 -108 -287 0 -288 0 -91 -467 c-51 -258 -94 -476 -97 -485 -5 -17 13 -18 280 -18 157 0 286 -2 286 -5 0 -3 -94 -481 -210 -1063 -239 -1207 -235 -1183 -251 -1357 -28 -310 23 -590 143 -775 57 -88 177 -206 268 -262 207 -129 438 -176 810 -165 221 7 347 21 564 64 116 22 139 30 146 47 11 26 115 994 108 1001 -2 3 -40 -3 -84 -11 -50 -11 -135 -17 -229 -18 -137 -1 -154 1 -191 21 -93 50 -118 112 -112 278 4 92 39 283 211 1155 114 575 209 1055 212 1068 l5 22 345 0 c319 0 344 1 349 18 5 19 186 937 186 946 0 3 -153 6 -340 6 -269 0 -340 3 -340 13 0 11 202 1030 215 1085 l5 22 -693 0 -694 0 -91 -452z"/>
		<path d="M7615 6853 c-430 -36 -797 -173 -1105 -411 -125 -96 -303 -281 -409 -423 -305 -408 -485 -867 -591 -1504 -49 -298 -64 -471 -57 -660 19 -448 160 -823 429 -1134 268 -311 629 -487 1093 -532 145 -14 448 -7 625 16 435 55 910 216 1236 418 l92 57 -8 37 c-5 21 -45 207 -90 413 -44 206 -84 383 -88 392 -6 15 -16 13 -89 -17 -157 -64 -368 -137 -491 -171 -185 -50 -324 -67 -562 -68 -185 -1 -213 1 -283 22 -93 27 -135 47 -204 99 -143 107 -228 290 -248 530 -4 45 -4 100 0 122 l7 41 1179 0 c741 0 1179 4 1179 10 0 5 23 152 50 327 86 536 91 578 97 788 7 231 -10 396 -57 580 -105 405 -353 727 -696 902 -238 122 -495 175 -823 171 -80 -1 -164 -3 -186 -5z m157 -1084 c165 -35 244 -135 270 -344 12 -98 3 -264 -24 -402 l-12 -63 -497 0 c-389 0 -498 3 -502 13 -2 6 7 52 20 101 87 319 224 545 388 642 97 56 240 78 357 53z"/>
		<path d="M12665 6849 c-371 -48 -758 -263 -1040 -577 -36 -40 -65 -70 -65 -68 0 10 60 502 66 539 l6 37 -655 0 -655 0 -5 -22 c-3 -13 -204 -1020 -447 -2238 -242 -1218 -443 -2223 -446 -2232 -5 -17 32 -18 690 -18 383 0 696 1 696 3 0 15 651 3250 656 3258 19 31 171 138 249 176 141 68 272 87 425 62 136 -22 243 -96 280 -197 30 -78 35 -204 16 -347 -9 -66 -144 -758 -299 -1537 l-283 -1418 695 0 696 0 293 1468 c161 807 299 1512 307 1567 58 403 31 768 -74 1000 -116 255 -331 442 -591 513 -147 41 -345 52 -515 31z"/>
		<path d="M19305 6849 c-445 -42 -809 -161 -1122 -368 -323 -214 -537 -484 -648 -815 -33 -99 -65 -244 -58 -262 4 -12 113 -14 678 -14 l673 0 7 33 c16 79 60 192 97 248 47 69 124 132 199 160 143 55 367 23 445 -63 61 -66 90 -188 80 -332 -3 -50 -24 -180 -46 -289 -22 -109 -40 -200 -40 -203 0 -2 -138 -4 -307 -4 -341 0 -513 -10 -738 -41 -871 -122 -1369 -545 -1539 -1305 -102 -455 -28 -808 226 -1079 216 -232 525 -346 893 -332 154 6 255 23 387 67 210 70 422 212 624 418 99 100 104 101 104 14 0 -84 48 -349 72 -394 8 -17 51 -18 694 -18 648 0 685 1 680 18 -30 97 -60 478 -52 657 14 279 15 287 260 1520 96 484 180 927 187 985 14 126 7 347 -15 445 -51 232 -132 382 -296 545 -202 202 -469 334 -790 390 -144 25 -485 35 -655 19z m70 -2876 c-24 -120 -56 -285 -73 -368 l-30 -150 -48 -44 c-280 -253 -673 -307 -810 -110 -31 45 -54 124 -54 184 0 22 9 81 19 130 64 309 252 524 494 564 29 5 163 9 298 10 l246 1 -42 -217z"/>
		<path d="M22030 6777 c0 -1 -47 -239 -105 -527 -58 -288 -105 -530 -105 -537 0 -10 170 -13 864 -13 549 0 867 -4 871 -10 5 -7 -1036 -1179 -2182 -2456 l-163 -182 -79 -391 -78 -391 1791 0 1791 0 104 523 c58 287 106 530 109 540 4 16 -45 17 -922 17 -783 0 -926 2 -926 14 0 7 525 603 1166 1322 642 720 1173 1316 1181 1325 8 9 45 175 83 370 38 195 72 364 75 377 l5 22 -1740 0 c-957 0 -1740 -1 -1740 -3z"/>
		<path d="M25817 6743 c2 -21 121 -1048 263 -2283 l258 -2245 -91 -173 c-141 -265 -214 -349 -372 -427 -114 -57 -209 -77 -365 -77 -74 0 -148 1 -164 3 l-28 4 -183 -490 c-100 -269 -180 -493 -176 -496 11 -12 344 -87 431 -98 171 -22 426 -9 625 30 207 42 401 123 546 230 111 82 352 325 463 469 209 270 200 254 1603 2960 732 1411 1338 2580 1347 2598 l17 32 -743 -2 -743 -3 -560 -1215 c-339 -733 -567 -1216 -576 -1218 -13 -2 -18 144 -42 1115 -15 615 -30 1164 -33 1221 l-6 102 -738 0 -738 0 5 -37z"/>
	</g>
</svg>
